# xmcd
#
# Track frame offsets:
#	150
#	6002
#	45751
#	77355
#	117275
#	130717
#	155528
#	186184
#	205290
#	226150
#	237577
#	257973
#	278917
#	310400
#	327029
#
# Disc length: 4631 seconds
#
# Revision: 1
# Processed by: cddbd v1.5.2PL0 Copyright (c) Steve Scherf et al.
# Submitted via: audiograbber 1.83.01
#
DISCID=bf12150f
DTITLE=Various Artist - Blue Note Trip Tease vol. 2 - cd 1
DYEAR=2008
DGENRE=Jazz
TTITLE0=Don Ellis - Introduction by Jimmy Lyons
TTITLE1=Don Ellis - 33 222 1 222
TTITLE2=Bobby Hutcherson - Slow Change
TTITLE3=Art Ensemble Of Chicago - Thème De Yoyo
TTITLE4=Terence Blanchard - Ghost Of Congo Square
TTITLE5=Solomon Ilori - Ise Oluwa
TTITLE6=Art Blakey - Afrique
TTITLE7=Don Byron - I'm Stuck
TTITLE8=Erik Truffaz feat. Nya - Trippin' The Lovelight Fantastic
TTITLE9=Guru feat. Gary Barnacle - Slicker Than Most
TTITLE10=Troublemakers - Shadow Lights
TTITLE11=The Ananda Shankar Experience And State Of Bengal - Streets Of Calcutt
TTITLE11=a (live)
TTITLE12=Nat Adderley - Fun In The Church
TTITLE13=David Axelrod - The Signs Part 1
TTITLE14=Gianluca Petrella - Slow Bars
EXTD=YEAR: 2008
EXTT0=
EXTT1=
EXTT2=
EXTT3=
EXTT4=
EXTT5=
EXTT6=
EXTT7=
EXTT8=
EXTT9=
EXTT10=
EXTT11=
EXTT12=
EXTT13=
EXTT14=
PLAYORDER=
